HIERARCHY
ROOT root
{
	OFFSET 0.000000 0.000000 0.000000
	CHANNELS 6 Xposition Yposition Zposition Zrotation Yrotation Xrotation
	JOINT lhip
	{
		OFFSET 0.058581 -0.082280 -0.017664
		CHANNELS 3 Zrotation Yrotation Xrotation
		JOINT lknee
		{
			OFFSET 0.043451 -0.386469 0.008037
			CHANNELS 3 Zrotation Yrotation Xrotation
			JOINT lankle
			{
				OFFSET -0.014790 -0.426874 -0.037428
				CHANNELS 3 Zrotation Yrotation Xrotation
				JOINT ltoe
				{
					OFFSET 0.041054 -0.060286 0.122042
					CHANNELS 3 Zrotation Yrotation Xrotation
					End Site
					{
						OFFSET 0.000000 0.000000 0.000000
					}
				}
			}
		}
	}
	JOINT rhip
	{
		OFFSET -0.060310 -0.090513 -0.013543
		CHANNELS 3 Zrotation Yrotation Xrotation
		JOINT rknee
		{
			OFFSET -0.043257 -0.383688 -0.004843
			CHANNELS 3 Zrotation Yrotation Xrotation
			JOINT rankle
			{
				OFFSET 0.019056 -0.420046 -0.034562
				CHANNELS 3 Zrotation Yrotation Xrotation
				JOINT rtoe
				{
					OFFSET -0.034840 -0.062106 0.130323
					CHANNELS 3 Zrotation Yrotation Xrotation
					End Site
					{
						OFFSET 0.000000 0.000000 0.000000
					}
				}
			}
		}
	}
	JOINT lowerback
	{
		OFFSET 0.004439 0.124404 -0.038385
		CHANNELS 3 Zrotation Yrotation Xrotation
		JOINT upperback
		{
			OFFSET 0.004488 0.137956 0.026820
			CHANNELS 3 Zrotation Yrotation Xrotation
			JOINT chest
			{
				OFFSET -0.002265 0.056032 0.002855
				CHANNELS 3 Zrotation Yrotation Xrotation
				JOINT lowerneck
				{
					OFFSET -0.013390 0.211636 -0.033468
					CHANNELS 3 Zrotation Yrotation Xrotation
					JOINT upperneck
					{
						OFFSET 0.010113 0.088937 0.050410
						CHANNELS 3 Zrotation Yrotation Xrotation
						End Site
						{
							OFFSET 0.000000 0.000000 0.000000
						}
					}
				}
				JOINT lclavicle
				{
					OFFSET 0.071702 0.114000 -0.018898
					CHANNELS 3 Zrotation Yrotation Xrotation
					JOINT lshoulder
					{
						OFFSET 0.122921 0.045205 -0.019046
						CHANNELS 3 Zrotation Yrotation Xrotation
						JOINT lelbow
						{
							OFFSET 0.255332 -0.015649 -0.022946
							CHANNELS 3 Zrotation Yrotation Xrotation
							JOINT lwrist
							{
								OFFSET 0.265709 0.012698 -0.007375
								CHANNELS 3 Zrotation Yrotation Xrotation
								End Site
								{
									OFFSET 0.000000 0.000000 0.000000
								}
							}
						}
					}
				}
				JOINT rclavicle
				{
					OFFSET -0.082954 0.112472 -0.023707
					CHANNELS 3 Zrotation Yrotation Xrotation
					JOINT rshoulder
					{
						OFFSET -0.113228 0.046853 -0.008472
						CHANNELS 3 Zrotation Yrotation Xrotation
						JOINT relbow
						{
							OFFSET -0.260127 -0.014369 -0.031269
							CHANNELS 3 Zrotation Yrotation Xrotation
							JOINT rwrist
							{
								OFFSET -0.269108 0.006794 -0.006027
								CHANNELS 3 Zrotation Yrotation Xrotation
								End Site
								{
									OFFSET 0.000000 0.000000 0.000000
								}
							}
						}
					}
				}
			}
		}
	}
}
MOTION
Frames: 13
Frame Time: 0.033333
2.183036 0.357506 0.990851 -90.430530 1.620179 89.354427 4.664675 3.540613 2.036499 -2.283384 -4.392508 4.736508 5.236219 12.527711 -14.741762 0.000000 -0.000000 0.000000 -4.092894 -2.773192 -5.687834 0.675885 -1.957662 16.156407 3.023290 -8.978076 -14.187119 0.000000 -0.000000 0.000000 0.759830 -0.026778 5.562244 1.030045 0.315293 -2.556401 -0.096735 -0.323421 3.169409 1.162027 -0.811474 -3.549809 -0.864919 -4.923985 6.330724 -25.524778 7.601891 1.990250 -58.448454 -3.865200 8.647817 5.822658 -29.642908 16.687172 -2.483242 0.418837 -0.387471 25.091463 -1.162035 0.691411 57.121403 2.236451 14.563181 -12.972135 29.013722 4.405527 -2.713072 0.286212 0.295603 
2.181807 0.359178 0.990580 -90.404561 1.533892 89.138448 4.689205 3.657843 2.341314 -2.210701 -4.469311 4.689000 5.154269 12.468054 -14.755328 0.000000 -0.000000 0.000000 -4.068661 -2.909215 -5.429008 0.629862 -2.020005 16.294348 2.913015 -8.768952 -14.401095 0.000000 -0.000000 0.000000 1.012831 -0.434459 5.776948 0.893768 -0.072532 -2.203099 -0.526886 0.140688 2.904458 1.110783 -0.627215 -3.757934 -0.841436 -5.036375 6.125958 -25.478670 8.338325 1.505433 -58.198176 -3.317314 8.814469 4.822505 -30.707528 18.071525 -2.658564 0.184270 -0.216818 25.145063 -1.055080 0.832032 57.573690 2.255506 14.463408 -12.622522 28.009511 4.725885 -2.711847 0.202080 0.462821 
2.181029 0.360529 0.990477 -90.116225 1.509966 89.150599 4.766164 3.534565 2.275366 -2.197371 -4.573058 4.765586 5.134368 12.427090 -14.755681 0.000000 -0.000000 0.000000 -3.995939 -2.914466 -5.337126 0.675142 -2.155222 16.307609 2.848671 -8.946007 -14.542741 0.000000 -0.000000 0.000000 1.032528 -0.476490 5.560520 0.885610 -0.127226 -2.095291 -0.615014 0.134930 3.040246 1.188828 -0.618384 -3.798458 -0.829408 -5.171990 6.311498 -25.460135 8.486967 1.593219 -58.269013 -3.373909 8.981940 4.516192 -31.207009 18.542301 -2.728221 0.058139 -0.188411 25.231467 -1.153877 0.866660 57.656877 2.097515 14.424511 -12.414688 27.238620 4.875987 -2.535121 0.148849 0.572769 
2.179728 0.363453 0.990676 -90.432216 1.399828 89.135364 4.840482 3.544390 2.591754 -2.224467 -4.427371 4.455011 5.025811 12.645514 -14.653090 0.000000 -0.000000 0.000000 -3.831355 -2.605703 -5.320984 0.539383 -2.053057 16.387692 2.735319 -9.082690 -14.640699 0.000000 -0.000000 0.000000 0.645421 -0.549065 5.428666 0.915910 0.025436 -2.121041 -0.533966 0.334595 3.105004 1.184326 -0.692387 -3.807412 -0.875410 -5.414242 6.469296 -25.508056 8.813104 1.597805 -57.988134 -3.239692 9.036833 4.290941 -31.690470 18.769493 -2.717436 -0.060858 -0.257519 25.473832 -1.197132 1.050206 57.707020 1.928014 14.442777 -12.331298 26.570308 4.978917 -2.386020 0.094894 0.643608 
2.178511 0.365259 0.991144 -90.300588 1.363538 88.993382 4.904652 3.560380 2.868602 -2.164042 -4.474530 4.358344 4.984322 12.589809 -14.654254 0.000000 -0.000000 0.000000 -3.718809 -2.663194 -4.905829 0.513188 -2.016659 16.120907 2.725226 -9.192477 -14.647013 0.000000 -0.000000 0.000000 0.449342 -0.533761 5.435277 0.949385 -0.069117 -1.881630 -0.464268 0.321681 2.982296 1.154317 -0.810940 -3.961020 -0.767792 -5.535757 6.214119 -25.485688 8.915357 1.615022 -57.928288 -3.251148 8.982366 4.334922 -31.897424 18.715330 -2.606170 -0.055050 -0.441913 25.564420 -1.265570 0.990004 57.724777 1.648727 14.405868 -12.187707 26.097638 5.108787 -2.365427 0.022601 0.687255 
2.177854 0.366352 0.991398 -89.870116 1.375836 88.989423 4.985604 3.557189 2.775587 -2.128274 -4.658667 4.484325 4.933109 12.426616 -14.649602 0.000000 -0.000000 0.000000 -3.656406 -2.846371 -4.608315 0.551856 -2.182947 15.800642 2.724453 -9.241601 -14.600511 0.000000 -0.000000 0.000000 0.434797 -0.633285 5.459828 0.964057 -0.321259 -1.849735 -0.480673 0.259659 2.918510 1.231401 -0.544584 -3.754881 -0.625217 -5.241831 6.394306 -25.429672 8.942061 1.628849 -57.878168 -3.364281 8.861818 4.495687 -31.892016 18.392197 -2.538559 -0.043185 -0.645782 25.584293 -1.324578 1.066495 57.754745 1.562574 14.381033 -12.116598 25.739989 5.146992 -2.352321 -0.045376 0.654896 
2.176995 0.367139 0.992386 -89.523025 1.373351 88.961652 4.919323 3.409858 2.757972 -1.964021 -4.883981 4.592005 4.904219 12.541409 -14.690690 0.000000 -0.000000 0.000000 -3.631079 -3.041135 -4.287244 0.625182 -2.209175 15.479185 2.811408 -9.354372 -14.585091 0.000000 -0.000000 0.000000 0.353896 -0.548808 5.429636 0.967875 -0.374654 -2.208863 -0.419955 0.085474 3.110389 1.291794 -0.630708 -3.425036 -0.610731 -5.266257 6.888806 -25.576166 8.683010 1.995827 -57.585921 -3.582310 8.774430 4.880452 -31.735801 17.648400 -2.348375 0.052367 -0.717331 25.821040 -1.305800 1.153490 57.473063 1.255502 14.307768 -12.127606 25.472645 4.941464 -2.355033 -0.104857 0.677175 
2.175721 0.369407 0.992065 -89.893989 1.494682 89.040295 5.230945 3.481228 2.880882 -2.043229 -4.700994 4.494941 4.920554 12.659021 -14.730294 0.000000 -0.000000 0.000000 -3.265249 -2.667706 -4.257124 0.497980 -2.116926 15.337172 2.639067 -9.446295 -14.575344 0.000000 -0.000000 0.000000 0.122430 -0.621186 5.289513 1.061238 -0.254322 -1.968124 -0.303267 0.261801 2.913203 1.283013 -0.556879 -3.474951 -0.453373 -5.195675 6.535913 -25.436519 8.931534 1.784530 -57.337124 -3.478471 8.646880 4.848395 -31.930673 17.652428 -2.232075 0.131608 -0.951727 25.665542 -1.391318 1.145153 57.669183 1.218899 14.352217 -12.063114 25.430437 5.208969 -2.305931 -0.212582 0.507348 
2.174993 0.370066 0.991826 -89.893433 1.544602 89.049927 5.326875 3.548038 2.834235 -2.043865 -4.763188 4.676040 4.869900 12.644823 -14.895367 0.000000 -0.000000 0.000000 -3.188558 -2.674377 -4.121652 0.536720 -2.092546 15.156471 2.676418 -9.421726 -14.587206 0.000000 -0.000000 0.000000 0.089528 -0.686937 5.297366 1.062762 -0.349577 -1.844513 -0.304959 0.321463 2.815340 1.314672 -0.545081 -3.645534 -0.388471 -5.268687 6.429625 -25.368163 8.961679 1.608914 -57.157629 -3.524330 8.505524 4.927164 -31.964373 17.362091 -2.134283 0.154867 -1.002909 25.620529 -1.313722 1.117333 57.703761 1.320948 14.311849 -12.083177 25.385681 5.142284 -2.307192 -0.228929 0.559032 
2.174240 0.370623 0.991546 -90.153025 1.633560 89.010548 5.461514 3.527237 2.903502 -2.078485 -4.600858 4.851048 4.921078 12.740377 -15.099602 0.000000 -0.000000 0.000000 -3.050730 -2.585562 -4.036039 0.535394 -1.961785 15.098939 2.668318 -9.356078 -14.631969 0.000000 -0.000000 0.000000 -0.038630 -0.577390 5.207038 1.108627 -0.278381 -1.534503 -0.199849 0.362007 2.776317 1.389371 -0.530235 -3.913157 -0.280135 -5.346611 6.194757 -25.289483 8.803384 1.532221 -57.111034 -3.633460 8.397984 5.145500 -31.987312 16.892717 -1.979156 0.183894 -1.162442 25.589205 -1.183561 1.099641 57.640533 1.498977 14.313625 -12.201570 25.557599 5.140314 -2.290328 -0.256204 0.582583 
2.173608 0.370048 0.991149 -90.143323 1.712770 89.014390 5.500986 3.585846 2.736345 -2.082362 -4.667205 5.233615 4.919729 12.726453 -15.352642 0.000000 -0.000000 0.000000 -3.048025 -2.722695 -3.975257 0.618773 -1.902786 15.052518 2.690834 -9.247948 -14.704766 0.000000 -0.000000 0.000000 0.014440 -0.509547 5.195344 1.109052 -0.375386 -1.366441 -0.191524 0.310012 2.766492 1.382711 -0.798136 -4.239829 -0.266251 -5.710858 5.935711 -25.238749 8.610149 1.505117 -57.122776 -3.743088 8.275608 5.377324 -31.961354 16.335507 -1.756893 0.211653 -1.518345 25.502507 -1.000187 1.028405 57.615812 1.701071 14.216972 -12.282965 25.835865 4.853252 -2.475931 -0.300948 0.409306 
2.172561 0.370201 0.990959 -90.700014 1.813551 88.953083 5.574628 3.462675 2.902444 -2.094370 -4.373797 5.391889 5.037215 13.093191 -15.581592 0.000000 -0.000000 0.000000 -2.884853 -2.401137 -3.923376 0.586912 -1.614580 15.057219 2.679483 -9.261317 -14.797250 0.000000 -0.000000 0.000000 -0.284655 -0.175853 5.036081 1.193815 0.042115 -1.221922 0.090286 0.208096 2.933604 1.588879 -0.721616 -4.208585 -0.243158 -5.643586 6.117228 -25.265110 8.178273 1.787068 -57.204720 -4.012874 8.251771 5.832181 -31.731628 15.531696 -1.523258 0.341761 -1.676982 25.598153 -0.894745 0.970711 57.347136 1.877641 14.257033 -12.491987 26.234561 4.518455 -2.478495 -0.326601 0.264463 
2.171862 0.369529 0.990534 -90.899020 1.930814 89.001746 5.585159 3.343390 2.711892 -2.059283 -4.177785 5.875084 5.172191 13.228371 -15.928112 0.000000 -0.000000 0.000000 -2.846835 -2.295094 -3.963006 0.636316 -1.533704 15.083409 2.726741 -9.214636 -14.893797 0.000000 -0.000000 0.000000 -0.130187 -0.281779 5.221995 1.185353 -0.093788 -1.382162 -0.018301 0.272038 2.917729 1.621131 -0.584890 -4.278184 -0.285990 -5.505127 6.260809 -25.385577 8.186900 1.630133 -56.961117 -3.818669 8.175680 5.841750 -31.656061 15.318479 -1.443765 0.265474 -1.741666 25.654283 -0.697202 1.035415 57.265842 2.176209 14.313072 -12.641363 26.712787 4.380513 -2.629962 -0.242583 0.256152 
